<svg class="icon" viewBox="0 0 1024 1024" version="1.1" xmlns="http://www.w3.org/2000/svg" width="128" height="128"><path d="M389.6 996.7c-21.2 0-34.9-9.5-34.9-24.1v-21.5l-136.6 2.7H78.7l2.7 18.8c0 14.7-13.7 24.1-34.9 24.1-22.1 0-34.8-8.8-34.8-24.1V865.3c0-16.9 7.6-33.7 14.9-50 2.3-5.1 4.6-10.3 6.7-15.4 1.2-2.9 1.3-5.3 0.4-7.3-2-4.6-9.1-7.3-15.9-9.9-8.3-3.1-16.9-6.4-16.9-14 0-14.9 4-24.2 24.1-24.2h32c-1.1-1.7 13.1-42.8 19.1-62.5 6.7-22.1 34-34.1 56.2-34.1h171.4c22.3 0 49.6 11.9 56.2 34.1 6.2 20.5 21.4 64.2 21.4 64.2l29.7-1.8c20.1 0 24.1 9.2 24.1 24.2 0 7.5-8.6 10.8-16.9 14-6.8 2.6-14 5.3-15.9 9.9-0.9 2-0.7 4.4 0.4 7.3 2.1 5.1 4.4 10.3 6.7 15.4 7.3 16.3 14.9 33.1 14.9 50v107.3c0.1 15.5-12.6 24.2-34.7 24.2z m-42.9-150.2c-16.3 0-29.5 13.2-29.5 29.5s13.3 29.5 29.5 29.5 29.5-13.2 29.5-29.5c-0.1-16.2-13.3-29.5-29.5-29.5z m-257.3 0c-16.3 0-29.5 13.2-29.5 29.5s13.3 29.5 29.5 29.5 29.5-13.2 29.5-29.5c0-16.2-13.2-29.5-29.5-29.5z m85.8 10.8c-2.2 0-4.1 0.9-5.7 2.4-1.5 1.5-2.4 3.6-2.4 5.7v10.8c0 2.1 0.9 4.2 2.4 5.7s3.6 2.3 5.7 2.3h85.6c2.2 0 4.2-0.8 5.7-2.3 1.5-1.5 2.4-3.6 2.4-5.7v-10.8c0-2.1-0.9-4.2-2.4-5.7s-3.5-2.4-5.7-2.4h-85.6z m153.6-80.5c7.1 0 13.4-0.3 18.1-3.4 10-6.7 7.3-21.1 5.7-27l-1.8-6.4c-3-11.2-6.1-22.7-11.4-33-1.5-2.8-3.9-6.8-7.4-8.8-3.5-1.9-7.9-1.9-11.9-1.9H115.9c-3.9 0-8.4 0-11.9 1.9-3.6 1.9-5.9 6-7.4 8.8-5.3 10.3-8.4 21.8-11.4 33l-1.8 6.4c-1.6 5.9-4.3 20.3 5.8 27 4.7 3.2 11 3.4 18.1 3.4h221.5z"></path><path d="M1021 196.1l-17.4-41.7c-4.3-10.3-14.5-17.1-25.7-17.1h-43.2l-28.8-28.8c-5.2-5.2-12.3-8.2-19.7-8.2H823l-26.2-26.2c-5.2-5.2-12.3-8.2-19.7-8.2H507.6c-7.4 0-14.5 2.9-19.7 8.2L383.1 179H193.2V97.8c0-5.2-1.5-10.4-4.2-14.8l-26.9-42.7c-5.1-8.1-14-13-23.6-13H46.8C31.5 27.3 19 39.7 19 55.1v317.7c0 7.4 2.9 14.4 8.2 19.7l30 30c5.2 5.2 12.3 8.2 19.7 8.2h130.3v82.8c0 15.4 12.4 27.8 27.8 27.8h94.8c15.4 0 27.8-12.4 27.8-27.8s-12.4-27.8-27.8-27.8h-67v-82.8c0-15.4-12.4-27.8-27.8-27.8H88.4l-13.7-13.8V82.9h48.5l14.4 22.9v101c0 15.4 12.4 27.8 27.8 27.8h229.2c7.4 0 14.5-2.9 19.7-8.2l104.9-104.9h246.5l26.2 26.2c5.2 5.2 12.3 8.2 19.7 8.2h63.2l28.8 28.8c5.2 5.2 12.3 8.2 19.7 8.2h36.2l8.1 19.4v562.5l-15.1 9.6h-29.1l-120-124.1v-42.5c0-7.4-2.9-14.4-8.2-19.7l-38.7-38.7c-5.2-5.2-12.3-8.2-19.7-8.2H614.3c-7.4 0-14.5 2.9-19.7 8.2L441.4 712.7c9 18.3 16.5 37.4 20.8 57.8l163.6-163.6h99.5l22.4 22.5v42.2c0 7.2 2.8 14.2 7.8 19.3l135.9 140.7c5.2 5.4 12.4 8.5 20 8.5h49c5.3 0 10.5-1.5 14.9-4.3l34.8-22.1c8.1-5.1 12.9-14 12.9-23.5V206.8c0.1-3.7-0.6-7.3-2-10.7z"></path></svg>
