<svg class="icon" viewBox="0 0 1449 1024" version="1.1" xmlns="http://www.w3.org/2000/svg" width="128" height="128"><path d="M980.780184 307.280147C992.268081 291.016214 999.02439 271.17319 999.02439 249.756098 999.02439 194.693773 954.296545 149.853659 899.121951 149.853659 844.059628 149.853659 799.219512 194.581504 799.219512 249.756098L633.570149 320.748681C615.802158 293.094817 584.771884 274.731707 549.463415 274.731707 494.401091 274.731707 449.560976 319.459553 449.560976 374.634146 449.560976 396.401519 456.551037 416.57137 468.41324 433.004966L287.515885 681.738829 287.515885 681.738829C275.866519 676.971133 263.117637 674.341463 249.756098 674.341463 194.693773 674.341463 149.853659 719.069309 149.853659 774.243902 149.853659 829.306226 194.581504 874.146341 249.756098 874.146341 304.818421 874.146341 349.658537 829.418496 349.658537 774.243902 349.658537 752.47653 342.668475 732.306679 330.806272 715.873083L509.795675 469.762655C510.43833 468.879005 511.008219 467.975682 511.506574 467.058326 523.209169 471.87716 536.026499 474.536585 549.463415 474.536585 604.525738 474.536585 649.365854 429.80874 649.365854 374.634146L649.365854 374.634146 815.015217 303.641563C832.783208 331.295427 863.813482 349.658537 899.121951 349.658537 913.266159 349.658537 926.735847 346.707151 938.944245 341.385446L1117.171035 541.890585C1105.683139 558.154517 1098.926829 577.997542 1098.926829 599.414634 1098.926829 654.476957 1143.654675 699.317073 1198.829268 699.317073 1253.891591 699.317073 1298.731707 654.589228 1298.731707 599.414634 1298.731707 544.352311 1254.003862 499.512195 1198.829268 499.512195 1184.685061 499.512195 1171.215372 502.46358 1159.006975 507.785286L980.780184 307.280147 980.780184 307.280147ZM0 100.049881C0 44.793857 44.941746 0 100.138674 0L1348.446693 0C1403.751754 0 1448.585366 44.658445 1448.585366 100.049881L1448.585366 923.95012C1448.585366 979.206142 1403.643619 1024 1348.446693 1024L100.138674 1024C44.833611 1024 0 979.341554 0 923.95012L0 100.049881ZM249.756098 824.195122C277.343394 824.195122 299.707317 801.831199 299.707317 774.243902 299.707317 746.656606 277.343394 724.292683 249.756098 724.292683 222.168801 724.292683 199.804878 746.656606 199.804878 774.243902 199.804878 801.831199 222.168801 824.195122 249.756098 824.195122ZM549.463415 424.585366C577.050711 424.585366 599.414634 402.221443 599.414634 374.634146 599.414634 347.04685 577.050711 324.682927 549.463415 324.682927 521.876118 324.682927 499.512195 347.04685 499.512195 374.634146 499.512195 402.221443 521.876118 424.585366 549.463415 424.585366ZM899.121951 299.707317C926.709248 299.707317 949.073171 277.343394 949.073171 249.756098 949.073171 222.168801 926.709248 199.804878 899.121951 199.804878 871.534654 199.804878 849.170732 222.168801 849.170732 249.756098 849.170732 277.343394 871.534654 299.707317 899.121951 299.707317ZM1198.829268 649.365854C1226.416565 649.365854 1248.780488 627.001931 1248.780488 599.414634 1248.780488 571.827337 1226.416565 549.463415 1198.829268 549.463415 1171.241972 549.463415 1148.878049 571.827337 1148.878049 599.414634 1148.878049 627.001931 1171.241972 649.365854 1198.829268 649.365854Z"></path></svg>
