<svg class="icon" viewBox="0 0 1024 1024" version="1.1" xmlns="http://www.w3.org/2000/svg" width="128" height="128"><path d="M804.522667 560.810667H560.810667v243.712A219.477333 219.477333 0 0 0 780.117333 1024h24.405334A219.477333 219.477333 0 0 0 1024 804.522667v-24.405334a219.477333 219.477333 0 0 0-219.477333-219.306666zM219.477333 560.810667A219.477333 219.477333 0 0 0 0 780.117333v24.405334A219.477333 219.477333 0 0 0 219.477333 1024h24.405334a219.477333 219.477333 0 0 0 219.306666-219.477333V560.810667zM243.882667 0h-24.405334A219.477333 219.477333 0 0 0 0 219.477333v24.405334a219.477333 219.477333 0 0 0 219.477333 219.306666h243.712V219.477333A219.477333 219.477333 0 0 0 243.882667 0z"></path><path d="M804.522667 71.509333a147.968 147.968 0 0 1 147.797333 147.968v24.405334A147.968 147.968 0 0 1 804.522667 392.533333H631.466667V219.477333a148.138667 148.138667 0 0 1 147.968-147.968h24.405333m0-71.509333h-23.722667a219.477333 219.477333 0 0 0-219.306666 219.477333v243.712h243.712A219.477333 219.477333 0 0 0 1024 243.882667v-24.405334A219.477333 219.477333 0 0 0 804.522667 0z"></path></svg>
