<svg class="icon" viewBox="0 0 1024 1024" version="1.1" xmlns="http://www.w3.org/2000/svg" width="128" height="128"><path d="M840.4992 721.4592v-61.44c21.9136 0 39.68-19.1488 39.68-42.7008v-410.624c0-23.552-17.8176-42.7008-39.68-42.7008H378.8288c-21.9136 0-39.68 19.1488-39.68 42.7008h-61.44c0-57.4464 45.3632-104.1408 101.12-104.1408h461.6704c55.7568 0 101.12 46.7456 101.12 104.1408v410.624c0 57.3952-45.3632 104.1408-101.12 104.1408z"></path><path d="M442.7776 938.24c-0.768 0-1.4848 0-2.2528-0.0512-15.0528-0.6144-29.3376-7.5776-39.2192-18.9952l-56.4224-65.28a40.7552 40.7552 0 0 0-30.7712-14.1824H190.0544c-56.5248 0-102.5536-46.4384-102.5536-103.5264V347.7504c0-57.088 46.0288-103.5264 102.5536-103.5264h507.0336c56.5248 0 102.5536 46.4384 102.5536 103.5264v388.4032c0 57.088-46.0288 103.5264-102.5536 103.5264h-114.7904c-10.6496 0-20.736 4.1472-28.416 11.6736l-72.7552 71.2192c-10.24 10.0352-24.1152 15.6672-38.3488 15.6672zM190.0544 305.664c-22.6816 0-41.1136 18.8928-41.1136 42.0864v388.4032c0 23.2448 18.432 42.0864 41.1136 42.0864h124.0576c29.6448 0 57.8048 12.9536 77.2608 35.4816l51.8656 60.0064L510.976 807.424c19.2512-18.8416 44.5952-29.184 71.3728-29.184h114.7904c22.6816 0 41.1136-18.8928 41.1136-42.0864V347.7504c0-23.2448-18.432-42.0864-41.1136-42.0864H190.0544z"></path><path d="M474.2656 631.296h-61.44v-17.7152c0-34.9184 20.6848-66.0992 52.6848-79.4624a57.1904 57.1904 0 0 0 34.9696-56.3712c-1.7408-28.1088-25.1392-51.5072-53.248-53.248-15.9744-0.9728-31.1808 4.4544-42.752 15.36-11.6224 10.9056-17.9712 25.6512-17.9712 41.5744h-61.44c0-32.5632 13.6192-64.0512 37.3248-86.3744 24.064-22.6304 55.6544-33.9456 88.6272-31.8976 59.4432 3.6864 107.0592 51.3024 110.7456 110.7456 3.1232 50.4832-26.0608 97.4336-72.6528 116.8896-9.0624 3.7888-14.8992 12.6976-14.8992 22.784v17.7152z"></path><path d="M443.5456 710.5024m-33.536 0a33.536 33.536 0 1 0 67.072 0 33.536 33.536 0 1 0-67.072 0Z"></path></svg>
