<svg class="icon" viewBox="0 0 1024 1024" version="1.1" xmlns="http://www.w3.org/2000/svg" width="128" height="128"><path d="M279.893333 303.786667l165.546667-124.586667c46.08-34.133333 105.813333-42.666667 158.72-22.186667L868.693333 256c17.066667 6.826667 35.84 10.24 52.906667 10.24h44.373333c11.946667 0 23.893333 10.24 23.893334 22.186667v322.56c0 11.946667-10.24 23.893333-23.893334 23.893333h-58.026666c-8.533333 0-17.066667 3.413333-22.186667 8.533333l-11.946667 10.24c-3.413333 3.413333-8.533333 1.706667-10.24-1.706666L554.666667 279.893333c-8.533333-10.24-22.186667-11.946667-32.426667-5.12l-141.653333 78.506667c-29.013333 15.36-61.44 17.066667-92.16 5.12-15.36-6.826667-23.893333-25.6-17.066667-40.96 1.706667-6.826667 5.12-10.24 8.533333-13.653333zM63.146667 633.173333h49.493333l35.84-42.666666c30.72-37.546667 87.04-42.666667 124.586667-11.946667 13.653333 11.946667 23.893333 27.306667 29.013333 44.373333 30.72 8.533333 52.906667 30.72 61.44 61.44 22.186667 6.826667 40.96 20.48 51.2 40.96 18.773333 3.413333 35.84 11.946667 49.493333 25.6 29.013333 29.013333 34.133333 75.093333 11.946667 109.226667l-5.12 8.533333v1.706667c23.893333 15.36 54.613333 10.24 71.68-11.946667 8.533333-11.946667 10.24-25.6 8.533333-39.253333v-1.706667h1.706667l3.413333 3.413334c17.066667 17.066667 46.08 20.48 66.56 6.826666 17.066667-11.946667 23.893333-32.426667 20.48-51.2v-1.706666h1.706667l3.413333 3.413333c17.066667 17.066667 44.373333 20.48 66.56 6.826667 17.066667-11.946667 25.6-32.426667 22.186667-51.2h1.706667l3.413333 3.413333c17.066667 17.066667 42.666667 18.773333 61.44 8.533333 23.893333-13.653333 32.426667-46.08 17.066667-69.973333-1.706667-3.413333-3.413333-5.12-5.12-8.533333L783.36 631.466667 530.773333 327.68c-3.413333-3.413333-6.826667-3.413333-10.24-1.706667L399.36 392.533333c-39.253333 20.48-85.333333 25.6-126.293333 10.24-23.893333-8.533333-40.96-25.6-49.493334-47.786666-6.826667-23.893333-3.413333-47.786667 8.533334-68.266667 3.413333-5.12 1.706667-11.946667-5.12-15.36-1.706667-1.706667-3.413333-1.706667-5.12-1.706667H58.026667c-13.653333-1.706667-23.893333 8.533333-23.893334 20.48v320.853334c5.12 11.946667 15.36 22.186667 29.013334 22.186666z m174.08-23.893333c-18.773333-10.24-42.666667-5.12-56.32 11.946667l-34.133334 40.96c-15.36 18.773333-11.946667 46.08 5.12 59.733333H153.6l5.12 3.413333c13.653333 10.24 32.426667 11.946667 47.786667 3.413334 1.706667-1.706667 1.706667 0 3.413333 1.706666v3.413334c-3.413333 15.36 3.413333 32.426667 15.36 40.96l3.413333 3.413333c13.653333 10.24 30.72 11.946667 46.08 5.12 1.706667-1.706667 3.413333 0 3.413334 1.706667v1.706666c-1.706667 13.653333 5.12 29.013333 17.066666 39.253334l3.413334 1.706666c13.653333 10.24 30.72 11.946667 46.08 3.413334 1.706667-1.706667 3.413333 0 3.413333 1.706666v1.706667c1.706667 10.24 8.533333 20.48 17.066667 27.306667l1.706666 1.706666c18.773333 13.653333 46.08 11.946667 61.44-8.533333 1.706667-1.706667 3.413333-3.413333 3.413334-5.12l5.12-10.24c10.24-18.773333 8.533333-40.96-8.533334-54.613333-11.946667-11.946667-30.72-13.653333-47.786666-8.533334-1.706667 0-1.706667 0-1.706667-1.706666v-1.706667c1.706667-23.893333-17.066667-42.666667-40.96-46.08-5.12 0-11.946667 1.706667-17.066667 3.413333-6.826667 1.706667-5.12-5.12-5.12-5.12 8.533333-22.186667-1.706667-46.08-23.893333-56.32-11.946667-5.12-25.6-3.413333-37.546667 1.706667-5.12 1.706667-3.413333-3.413333-3.413333-3.413333 13.653333-20.48 6.826667-46.08-13.653333-58.026667z"></path></svg>
