<svg class="icon" viewBox="0 0 1024 1024" version="1.1" xmlns="http://www.w3.org/2000/svg" width="128" height="128"><path d="M655.984 256a128 128 0 1 0-0.064-255.936A128 128 0 0 0 655.984 256zM803.536 352h-308.672c-85.376 0-152.96 55.936-174.4 131.904l-51.904 145.344H111.152c-34.816 0-63.168 26.56-63.168 60.224 0 33.696 28.352 61.12 63.168 61.12h174.496c45.632 0 81.728-30.176 95.936-70.368l38.4-107.136h24.32v443.968h373.696V572.992h32.448V962.88c0 33.824 28.32 61.12 63.168 61.12C948.432 1024 975.984 996.704 975.984 963.008V530.56C975.984 432.032 905.52 352 803.536 352z"></path></svg>
